<?xml version="1.0" encoding="utf-8"?>
<!DOCTYPE svg PUBLIC "-//W3C//DTD SVG 1.1//EN" "http://www.w3.org/Graphics/SVG/1.1/DTD/svg11.dtd">
<svg version="1.1" id="Layer_1" xmlns="http://www.w3.org/2000/svg" xmlns:xlink="http://www.w3.org/1999/xlink" x="0px" y="0px"
	 width="497.833px" height="104.375px" viewBox="0 0 497.833 104.375" enable-background="new 0 0 497.833 104.375"
	 xml:space="preserve">
<g>
	<path fill="#000000" d="M207.802,56.528c0,0.176,0,0.308-0.176,0.439c-0.308,0.265-0.616,0.353-0.925,0.353
		c-1.056,0-1.979-1.32-2.729-2.289l-16.018-22.883v22.355c0,0.528,0.132,0.836,0.132,1.276c0,0.483-0.176,1.012-0.748,1.012h-1.056
		c-0.617,0-0.925-0.396-0.925-0.748c0-0.088,0.044-0.132,0.044-0.22c0.221-0.484,0.221-0.88,0.221-1.541V29.2
		c0-0.968,0.22-2.156,1.496-2.156c0.615,0,1.145,0.176,1.408,0.484c5.457,7.877,11.441,16.415,16.942,24.292V29.948
		c0-0.396-0.044-0.748-0.177-1.1c-0.043-0.132-0.043-0.22-0.043-0.352c0-0.572,0.396-1.101,1.012-1.101h0.616
		c0.792,0,1.056,0.66,1.056,1.32c0,0.396-0.132,0.836-0.132,1.232V56.528z"/>
	<path fill="#000000" d="M217.561,42.226c0-8.625,6.116-15.358,13.95-15.358c7.789,0,13.906,6.733,13.906,15.314
		c0,8.449-6.161,15.183-13.951,15.183C223.723,57.364,217.561,50.631,217.561,42.226z M220.73,42.138
		c0,7.217,4.752,12.894,10.736,12.894c6.029,0,10.738-5.677,10.738-12.894c0-7.217-4.709-12.894-10.738-12.894
		C225.482,29.244,220.73,34.921,220.73,42.138z"/>
	<path fill="#000000" d="M276.041,56.264c0.132,0.044,0.176,0.132,0.176,0.265c0,0.088-0.044,0.176-0.133,0.22
		c0,0-0.659,0.44-1.672,0.44c-0.088,0-0.176,0-0.264,0c-1.188-0.089-2.332-0.616-2.992-1.629l-6.557-9.857
		c-0.837-1.276-2.289-2.068-3.829-2.068h-2.333c-0.131,0-0.219,0.088-0.219,0.264v10.694c0,0.176,0.043,0.396,0.043,0.528v0.264
		c0,0.66-0.308,1.408-1.1,1.408h-0.881c-0.703,0-1.144-0.616-1.144-1.276c0-0.044,0-0.132,0-0.176
		c0.044-0.22,0.044-0.44,0.044-0.748V29.068c0-0.836,0.439-1.672,1.364-1.672h6.425c3.652,0,5.854,0.44,7.525,1.497
		c2.288,1.364,3.74,3.96,3.74,6.733c0,2.596-1.32,5.148-3.301,6.513c-1.232,0.748-2.244,1.056-4.4,1.276
		c-0.088,0-0.088,0.044-0.088,0.088c2.377,3.477,4.973,7.173,7.35,10.649c0.703,1.012,0.968,1.408,1.231,1.585
		C275.205,55.868,275.425,56,276.041,56.264z M268.691,40.377c1.32-0.924,2.377-2.86,2.377-4.752c0-1.804-0.925-3.652-2.201-4.621
		c-1.363-0.968-2.992-1.32-5.853-1.32h-4.577c-0.131,0-0.219,0.088-0.219,0.22v11.177c0,0.176,0.088,0.264,0.219,0.264h4.665
		C266.315,41.346,267.592,41.082,268.691,40.377z"/>
	<path fill="#000000" d="M292.613,29.684v24.908c0,0.308,0,0.572,0.045,0.792c0.043,0.088,0.043,0.176,0.043,0.264
		c0,0.616-0.396,1.145-1.1,1.145h-0.969c-0.703,0-1.056-0.748-1.056-1.408c0-0.044,0-0.088,0-0.132
		c0.044-0.308,0.044-0.66,0.044-1.056V29.684h-6.381c-0.572,0-0.968,0.088-1.188,0.22c-0.133,0.088-0.265,0.132-0.396,0.132
		c-0.396,0-0.792-0.264-0.792-0.66c0-1.056,0.88-1.98,1.979-1.98h16.679c1.057,0,1.937,0.924,1.937,1.98
		c0,0.352-0.396,0.528-0.836,0.528c-0.176,0-0.352,0-0.528-0.088c-0.132-0.088-0.44-0.132-1.101-0.132H292.613z"/>
	<path fill="#000000" d="M327.084,40.114c0.045,0,0.045,0,0.045-0.088V29.684c0-0.308,0-0.572-0.045-0.792c0-0.044,0-0.132,0-0.176
		c0-0.66,0.44-1.32,1.145-1.32h0.88c0.704,0,1.101,0.66,1.101,1.276c0,0.088,0,0.132,0,0.22V29.2c0,0.132-0.044,0.308-0.044,0.484
		v24.908c0,0.176,0.044,0.396,0.044,0.528v0.264c0,0.66-0.309,1.408-1.101,1.408h-0.88c-0.704,0-1.145-0.572-1.145-1.188
		c0-0.088,0-0.132,0-0.22c0.045-0.22,0.045-0.484,0.045-0.792V42.534c0-0.088,0-0.132-0.045-0.132H312.65
		c-0.044,0-0.088,0.044-0.088,0.132v12.058c0,0.176,0.044,0.396,0.044,0.528v0.264c0,0.66-0.308,1.408-1.101,1.408h-0.88
		c-0.704,0-1.144-0.616-1.144-1.276c0-0.044,0-0.132,0-0.176c0.043-0.22,0.043-0.44,0.043-0.748V29.684c0-0.264,0-0.528-0.043-0.748
		c0-0.748,0.352-1.541,1.144-1.541h0.88c0.836,0,1.145,0.792,1.145,1.541c-0.044,0.22-0.088,0.528-0.088,0.748v10.341
		c0,0.088,0.044,0.088,0.088,0.088H327.084z"/>
	<path fill="#000000" d="M365.715,27.396c1.232,0,2.332,0.792,2.771,1.893l9.638,24.863l0.309,0.88
		c0.044,0.22,0.088,0.308,0.132,0.396c0.088,0.176,0.132,0.353,0.132,0.528c0,0.439-0.264,0.836-0.792,0.836h-1.893
		c-0.748,0-0.748-0.748-0.748-1.32c0-0.088-0.176-0.616-0.352-1.144c-1.013-2.596-2.112-5.457-3.037-8.009
		c-0.044-0.132-0.132-0.22-0.264-0.22h-11.354c-0.088,0-0.176,0.132-0.221,0.264l-2.992,7.965c-0.132,0.308-0.264,0.792-0.264,0.924
		c0,0.704-0.176,1.54-1.012,1.54h-1.057c-0.528,0-0.836-0.44-0.836-0.924c0-0.132,0.044-0.309,0.088-0.44
		c0.22-0.396,0.396-0.748,0.66-1.628l9.285-23.984c0.132-0.308,0.221-0.66,0.221-0.968c0-0.704,0.396-1.453,1.144-1.453H365.715z
		 M365.803,31.048l-4.841,12.63c-0.044,0.088-0.132,0.176-0.177,0.176h10.122c-0.044,0-0.088-0.088-0.132-0.22L365.803,31.048z"/>
	<path fill="#000000" d="M409.703,29.772c0.044-0.352,0.088-0.748,0.088-0.924c0-0.704,0.528-1.453,1.276-1.453h0.22
		c0.616,0,0.969,0.528,0.969,1.057c0,0.176-0.044,0.308-0.088,0.44v-0.088l-0.133,0.66c-0.044,0.264-0.088,0.352-0.132,0.528
		c-1.232,8.053-2.597,16.811-3.828,24.863c-0.309,1.364-1.145,2.597-2.553,2.597c-0.572,0-0.836-0.132-1.012-0.572l-7.041-18.878
		L390.78,56.88v-0.044c-0.088,0.44-0.66,0.616-1.1,0.616c-1.276,0-2.157-1.364-2.465-2.597l-3.257-24.863v0.044
		c-0.088-0.264-0.176-0.572-0.22-0.836h0.044c-0.088-0.22-0.132-0.44-0.132-0.704c0-0.572,0.308-1.101,0.924-1.101h0.969
		c0.836,0,1.188,0.88,1.276,1.628c0.044,0.132,0.088,0.396,0.132,0.748l2.86,22.708l6.645-18.307c0.309-1.012,1.188-2.2,1.849-2.2
		c0.264,0,0.439,0.176,0.572,0.616c2.42,6.689,4.929,13.422,7.349,20.111L409.703,29.772z M397.602,37.693
		c0,0,0.044-0.044,0.044-0.132L397.602,37.693z"/>
	<path fill="#000000" d="M428.617,27.396c1.231,0,2.332,0.792,2.772,1.893l9.637,24.863l0.309,0.88
		c0.044,0.22,0.088,0.308,0.132,0.396c0.088,0.176,0.132,0.353,0.132,0.528c0,0.439-0.264,0.836-0.792,0.836h-1.893
		c-0.748,0-0.748-0.748-0.748-1.32c0-0.088-0.176-0.616-0.352-1.144c-1.013-2.596-2.112-5.457-3.037-8.009
		c-0.044-0.132-0.132-0.22-0.264-0.22H423.16c-0.088,0-0.176,0.132-0.22,0.264l-2.993,7.965c-0.132,0.308-0.264,0.792-0.264,0.924
		c0,0.704-0.176,1.54-1.012,1.54h-1.057c-0.528,0-0.836-0.44-0.836-0.924c0-0.132,0.044-0.309,0.088-0.44
		c0.22-0.396,0.396-0.748,0.66-1.628l9.285-23.984c0.132-0.308,0.22-0.66,0.22-0.968c0-0.704,0.396-1.453,1.145-1.453H428.617z
		 M428.705,31.048l-4.841,12.63c-0.044,0.088-0.132,0.176-0.176,0.176h10.121c-0.044,0-0.088-0.088-0.132-0.22L428.705,31.048z"/>
	<path fill="#000000" d="M470.774,56.264c0.132,0.044,0.176,0.132,0.176,0.265c0,0.088-0.044,0.176-0.132,0.22
		c0,0-0.66,0.44-1.672,0.44c-0.088,0-0.176,0-0.265,0c-1.188-0.089-2.332-0.616-2.992-1.629l-6.557-9.857
		c-0.836-1.276-2.288-2.068-3.829-2.068h-2.332c-0.132,0-0.22,0.088-0.22,0.264v10.694c0,0.176,0.044,0.396,0.044,0.528v0.264
		c0,0.66-0.309,1.408-1.101,1.408h-0.88c-0.704,0-1.145-0.616-1.145-1.276c0-0.044,0-0.132,0-0.176
		c0.045-0.22,0.045-0.44,0.045-0.748V29.068c0-0.836,0.439-1.672,1.363-1.672h6.426c3.652,0,5.853,0.44,7.524,1.497
		c2.288,1.364,3.741,3.96,3.741,6.733c0,2.596-1.32,5.148-3.301,6.513c-1.232,0.748-2.244,1.056-4.4,1.276
		c-0.088,0-0.088,0.044-0.088,0.088c2.376,3.477,4.973,7.173,7.349,10.649c0.704,1.012,0.968,1.408,1.232,1.585
		C469.938,55.868,470.158,56,470.774,56.264z M463.426,40.377c1.32-0.924,2.376-2.86,2.376-4.752c0-1.804-0.924-3.652-2.2-4.621
		c-1.364-0.968-2.992-1.32-5.853-1.32h-4.577c-0.132,0-0.22,0.088-0.22,0.22v11.177c0,0.176,0.088,0.264,0.22,0.264h4.665
		C461.049,41.346,462.325,41.082,463.426,40.377z"/>
	<path fill="#000000" d="M482.221,42.666c-0.132,0-0.22,0.088-0.22,0.22v11.486c0,0.132,0.088,0.264,0.22,0.264h11.529
		c0.528,0,0.881-0.044,1.232-0.176c0.309-0.132,0.616-0.176,0.924-0.176c0.616,0,1.145,0.22,1.188,0.836
		c0.044,0.176,0.044,0.352,0.044,0.528c0,0.66-0.22,1.188-0.792,1.188h-16.062c-0.924,0-1.276-0.88-1.276-1.672V29.112
		c0-0.044,0-0.088,0-0.132c0-0.792,0.44-1.54,1.276-1.54h15.358c0.616,0,0.792,0.484,0.792,1.144c0,0.176,0,0.352-0.044,0.528
		c-0.088,0.572-0.66,0.792-1.232,0.792c-0.308,0-0.615-0.044-0.88-0.132h0.044c-0.22-0.044-0.483-0.088-0.748-0.088h-11.354
		c-0.132,0-0.22,0.132-0.22,0.22v10.253c0,0.132,0.088,0.264,0.22,0.264h10.298c0.088,0,0.132-0.044,0.308-0.044
		c0.088,0,0.176,0,0.264,0c0.705,0,1.453,0.176,1.453,1.012v0.264c0,0.748-0.793,1.012-1.541,1.012c-0.132,0-0.22,0-0.352,0H482.221
		z"/>
</g>
<g>
	<path fill="#000000" d="M317.236,83.263c-1.128-3.076-2.317-6.234-3.445-9.331l-1.6,10.664c-0.021,0.164-0.021,0.328-0.021,0.451
		c0,0.308-0.267,0.636-0.615,0.636h-0.082c-0.287,0-0.431-0.226-0.431-0.492c0-0.103,0.021-0.246,0.062-0.349
		c0.021-0.123,0.041-0.267,0.062-0.369c0.574-3.753,1.23-7.813,1.805-11.566c0.164-0.615,0.574-1.189,1.169-1.189
		c0.246,0,0.451,0.041,0.492,0.246v-0.021c1.087,2.953,2.153,5.886,3.24,8.798l3.158-8.798c0.082-0.164,0.226-0.246,0.492-0.246
		c0.574,0,1.025,0.595,1.169,1.21l1.518,11.566c0.041,0.123,0.062,0.308,0.103,0.39s0.062,0.185,0.062,0.267
		c0,0.287-0.144,0.554-0.451,0.554h-0.472c-0.369,0-0.513-0.41-0.554-0.738c-0.021-0.041-0.041-0.103-0.062-0.185
		c-0.021-0.041-0.021-0.103-0.041-0.123l-1.354-10.603l-3.076,8.531c-0.144,0.451-0.533,0.984-0.841,0.984
		C317.421,83.55,317.318,83.468,317.236,83.263z"/>
	<path fill="#000000" d="M330.416,78.895c0-4.02,2.851-7.157,6.501-7.157c3.63,0,6.48,3.138,6.48,7.137
		c0,3.938-2.871,7.075-6.501,7.075C333.287,85.95,330.416,82.812,330.416,78.895z M331.893,78.854c0,3.363,2.215,6.009,5.004,6.009
		c2.81,0,5.004-2.646,5.004-6.009s-2.194-6.009-5.004-6.009C334.107,72.845,331.893,75.491,331.893,78.854z"/>
	<path fill="#000000" d="M349.537,72.025c0.287,0.021,0.328,0.267,0.328,0.513c0,0.062,0.021,0.123,0.041,0.164
		s0.062,0.164,0.082,0.226c1.23,3.609,2.461,7.116,3.691,10.746c1.107-3.609,2.215-7.137,3.322-10.746
		c0.021-0.103,0.062-0.226,0.082-0.328c0.082-0.267,0.205-0.615,0.574-0.615h0.287c0.246,0,0.349,0.205,0.349,0.451
		s-0.164,0.492-0.185,0.574h0.021c-0.472,1.497-3.425,10.89-3.896,12.387c-0.103,0.267-0.328,0.41-0.595,0.41h-0.287
		c-0.287,0-0.513-0.205-0.615-0.41c-1.354-4.02-2.851-8.347-4.225-12.366c-0.041-0.164-0.062-0.205-0.082-0.246
		s-0.021-0.062-0.041-0.103c-0.041-0.082-0.062-0.164-0.062-0.246c0-0.226,0.144-0.451,0.39-0.451L349.537,72.025z"/>
	<path fill="#000000" d="M365.607,79.1c-0.062,0-0.103,0.041-0.103,0.103v5.353c0,0.062,0.041,0.123,0.103,0.123h5.373
		c0.246,0,0.41-0.021,0.574-0.082c0.144-0.062,0.287-0.082,0.431-0.082c0.287,0,0.533,0.103,0.554,0.39
		c0.021,0.082,0.021,0.164,0.021,0.246c0,0.308-0.103,0.554-0.369,0.554h-7.485c-0.431,0-0.595-0.41-0.595-0.779V72.784
		c0-0.021,0-0.041,0-0.062c0-0.369,0.205-0.718,0.595-0.718h7.157c0.287,0,0.369,0.226,0.369,0.533c0,0.082,0,0.164-0.021,0.246
		c-0.041,0.267-0.308,0.369-0.574,0.369c-0.144,0-0.287-0.021-0.41-0.062h0.021c-0.103-0.021-0.226-0.041-0.349-0.041h-5.291
		c-0.062,0-0.103,0.062-0.103,0.103v4.778c0,0.062,0.041,0.123,0.103,0.123h4.799c0.041,0,0.062-0.021,0.144-0.021
		c0.041,0,0.082,0,0.123,0c0.328,0,0.677,0.082,0.677,0.472v0.123c0,0.349-0.369,0.472-0.718,0.472c-0.062,0-0.103,0-0.164,0
		H365.607z"/>
	<path fill="#000000" d="M389.352,79.182v5.476c0,0.144,0,0.246,0.021,0.349c0,0.021,0,0.062,0,0.082
		c0,0.308-0.185,0.595-0.533,0.595h-0.41c-0.328,0-0.513-0.246-0.513-0.533c0-0.041,0-0.082,0-0.123
		c0.021-0.103,0.021-0.226,0.021-0.369V72.763c0-0.349,0.062-0.779,0.492-0.779h6.132c0.492,0,0.902,0.41,0.902,0.902
		c0,0.185-0.164,0.267-0.349,0.267c-0.205,0-0.287-0.103-0.615-0.103h-5.147v5.106h4.737c0.041,0,0.082,0,0.123,0
		c0.308,0,0.656,0.082,0.656,0.472v0.164c0,0.267-0.287,0.41-0.574,0.41c-0.041,0-0.062,0-0.103,0h-0.103
		c-0.041,0-0.103-0.021-0.164-0.021H389.352z"/>
	<path fill="#000000" d="M400.656,78.895c0-4.02,2.851-7.157,6.501-7.157c3.63,0,6.48,3.138,6.48,7.137
		c0,3.938-2.871,7.075-6.501,7.075C403.527,85.95,400.656,82.812,400.656,78.895z M402.133,78.854c0,3.363,2.215,6.009,5.004,6.009
		c2.81,0,5.004-2.646,5.004-6.009s-2.194-6.009-5.004-6.009C404.348,72.845,402.133,75.491,402.133,78.854z"/>
	<path fill="#000000" d="M430.113,85.437c0.062,0.021,0.082,0.062,0.082,0.123c0,0.041-0.021,0.082-0.062,0.103
		c0,0-0.308,0.205-0.779,0.205c-0.041,0-0.082,0-0.123,0c-0.554-0.041-1.087-0.287-1.395-0.759l-3.056-4.594
		c-0.39-0.595-1.066-0.964-1.784-0.964h-1.087c-0.062,0-0.103,0.041-0.103,0.123v4.983c0,0.082,0.021,0.185,0.021,0.246v0.123
		c0,0.308-0.144,0.656-0.513,0.656h-0.41c-0.328,0-0.533-0.287-0.533-0.595c0-0.021,0-0.062,0-0.082
		c0.021-0.103,0.021-0.205,0.021-0.349V72.763c0-0.39,0.205-0.779,0.636-0.779h2.994c1.702,0,2.728,0.205,3.507,0.697
		c1.066,0.636,1.743,1.846,1.743,3.138c0,1.21-0.615,2.399-1.538,3.035c-0.574,0.349-1.046,0.492-2.051,0.595
		c-0.041,0-0.041,0.021-0.041,0.041c1.107,1.62,2.317,3.343,3.425,4.963c0.328,0.472,0.451,0.656,0.574,0.738
		C429.724,85.252,429.826,85.314,430.113,85.437z M426.688,78.034c0.615-0.431,1.107-1.333,1.107-2.215
		c0-0.841-0.431-1.702-1.025-2.153c-0.636-0.451-1.395-0.615-2.728-0.615h-2.133c-0.062,0-0.103,0.041-0.103,0.103v5.209
		c0,0.082,0.041,0.123,0.103,0.123h2.174C425.581,78.485,426.176,78.362,426.688,78.034z"/>
	<path fill="#000000" d="M447.079,73.091c0.021-0.164,0.041-0.349,0.041-0.431c0-0.328,0.246-0.677,0.595-0.677h0.103
		c0.287,0,0.451,0.246,0.451,0.492c0,0.082-0.021,0.144-0.041,0.205V72.64l-0.062,0.308c-0.021,0.123-0.041,0.164-0.062,0.246
		c-0.574,3.753-1.21,7.834-1.784,11.587c-0.144,0.636-0.533,1.21-1.189,1.21c-0.267,0-0.39-0.062-0.472-0.267l-3.281-8.798
		l-3.117,8.798v-0.021c-0.041,0.205-0.308,0.287-0.513,0.287c-0.595,0-1.005-0.636-1.148-1.21l-1.518-11.587v0.021
		c-0.041-0.123-0.082-0.267-0.103-0.39H435c-0.041-0.103-0.062-0.205-0.062-0.328c0-0.267,0.144-0.513,0.431-0.513h0.451
		c0.39,0,0.554,0.41,0.595,0.759c0.021,0.062,0.041,0.185,0.062,0.349l1.333,10.582l3.097-8.531
		c0.144-0.472,0.554-1.025,0.861-1.025c0.123,0,0.205,0.082,0.267,0.287c1.128,3.117,2.297,6.255,3.425,9.372L447.079,73.091z
		 M441.439,76.783c0,0,0.021-0.021,0.021-0.062L441.439,76.783z"/>
	<path fill="#000000" d="M458.1,71.984c0.574,0,1.087,0.369,1.292,0.882l4.491,11.587l0.144,0.41
		c0.021,0.103,0.041,0.144,0.062,0.185c0.041,0.082,0.062,0.164,0.062,0.246c0,0.205-0.123,0.39-0.369,0.39h-0.882
		c-0.349,0-0.349-0.349-0.349-0.615c0-0.041-0.082-0.287-0.164-0.533c-0.472-1.21-0.984-2.543-1.415-3.732
		c-0.021-0.062-0.062-0.103-0.123-0.103h-5.291c-0.041,0-0.082,0.062-0.103,0.123l-1.395,3.712
		c-0.062,0.144-0.123,0.369-0.123,0.431c0,0.328-0.082,0.718-0.472,0.718h-0.492c-0.246,0-0.39-0.205-0.39-0.431
		c0-0.062,0.021-0.144,0.041-0.205c0.103-0.185,0.185-0.349,0.308-0.759l4.327-11.177c0.062-0.144,0.103-0.308,0.103-0.451
		c0-0.328,0.185-0.677,0.533-0.677H458.1z M458.141,73.686l-2.256,5.886c-0.021,0.041-0.062,0.082-0.082,0.082h4.717
		c-0.021,0-0.041-0.041-0.062-0.103L458.141,73.686z"/>
	<path fill="#000000" d="M479.95,85.437c0.062,0.021,0.082,0.062,0.082,0.123c0,0.041-0.021,0.082-0.062,0.103
		c0,0-0.308,0.205-0.779,0.205c-0.041,0-0.082,0-0.123,0c-0.554-0.041-1.087-0.287-1.395-0.759l-3.056-4.594
		c-0.39-0.595-1.066-0.964-1.784-0.964h-1.087c-0.062,0-0.103,0.041-0.103,0.123v4.983c0,0.082,0.021,0.185,0.021,0.246v0.123
		c0,0.308-0.144,0.656-0.513,0.656h-0.41c-0.328,0-0.533-0.287-0.533-0.595c0-0.021,0-0.062,0-0.082
		c0.021-0.103,0.021-0.205,0.021-0.349V72.763c0-0.39,0.205-0.779,0.636-0.779h2.994c1.702,0,2.728,0.205,3.507,0.697
		c1.066,0.636,1.743,1.846,1.743,3.138c0,1.21-0.615,2.399-1.538,3.035c-0.574,0.349-1.046,0.492-2.051,0.595
		c-0.041,0-0.041,0.021-0.041,0.041c1.107,1.62,2.317,3.343,3.425,4.963c0.328,0.472,0.451,0.656,0.574,0.738
		C479.56,85.252,479.663,85.314,479.95,85.437z M476.525,78.034c0.615-0.431,1.107-1.333,1.107-2.215
		c0-0.841-0.431-1.702-1.025-2.153c-0.636-0.451-1.395-0.615-2.728-0.615h-2.133c-0.062,0-0.103,0.041-0.103,0.103v5.209
		c0,0.082,0.041,0.123,0.103,0.123h2.174C475.418,78.485,476.013,78.362,476.525,78.034z"/>
	<path fill="#000000" d="M485.99,72.845c0-0.021,0-0.041,0-0.062c0-0.39,0.185-0.8,0.615-0.8h1.866c2.297,0,3.712,0.369,5.086,1.312
		c1.805,1.23,2.871,3.281,2.871,5.476c0,2.461-1.312,4.717-3.425,5.906c-1.292,0.738-2.563,1.005-4.737,1.005h-1.661
		c-0.451,0-0.615-0.451-0.615-0.82V72.845z M487.405,84.535c0,0.062,0.041,0.123,0.103,0.123h1.046c1.702,0,3.138-0.472,4.184-1.21
		c1.271-1.046,2.215-2.912,2.215-4.676c0-1.743-0.923-3.486-2.194-4.532c-1.107-0.82-2.379-1.189-4.307-1.189h-0.943
		c-0.062,0-0.103,0.041-0.103,0.082V84.535z"/>
</g>
<g>
	<path fill="#000000" d="M163.333,50.018c-4.35-3.201-10.262-5.877-17.967-7.705c-7.304-1.734-15.541-2.646-24.713-2.736
		c1.83-2.859,3.8-5.901,5.907-9.131c4.706-7.142,7.058-12.657,7.058-16.553c-0.24-2.026-0.77-3.469-1.576-4.319
		c-0.812-0.854-2.232-1.279-4.261-1.279c-3.328,0-6.612,1.623-9.858,4.869L90.54,41.398l-0.43,0.442l-1.027,1.062l1.027-1.062
		c-4.316,0.652-11.904,1.371-20.25,2.591c7.645-15.23,9.96-30.167-3.852-38.872c-4.516-2.851-9.838-4.9-16.844-4.9
		c-7.799,0-15.504,1.636-23.111,4.9c-7.609,3.27-13.742,7.375-18.386,12.326c-4.646,4.953-6.966,9.803-6.966,14.542
		c0,2.739,0.79,4.94,2.381,6.599c1.585,1.66,3.689,2.489,6.304,2.489c1.724,0,3.3-0.302,4.727-0.909
		c1.422-0.604,2.131-1.277,2.131-2.015c0-0.527-0.396-0.789-1.188-0.789c-9.639,1.479-12.606-5.488-7.652-12.888
		c4.075-6.089,13.357-11.8,23.428-15.222c19.512-6.631,44.029-4.667,37.13,19.82c-1.45,5.149-4.14,10.78-7.407,16.477
		c-15.788,3.031-30.998,8.305-29.75,18.564c0.348,2.865,1.732,4.297,4.153,4.297c0.886,0,1.851-0.186,2.89-0.551
		c1.035-0.375,1.559-0.782,1.559-1.227c0-0.297-0.199-0.519-0.597-0.666c-2.175-0.396-2.424-1.321-2.237-2.844
		c0.71-5.856,10.039-9.608,20.731-12.182c-8.854,14.1-20.119,27.83-24.335,34.989c-3.899,6.615-5.848,11.178-5.848,13.695
		c0.326,2.27,1.99,3.407,4.988,3.407c1.871,0,4.039-0.628,6.516-1.888c2.474-1.256,4.561-2.776,6.27-4.562l49.85-51.938
		c4.871-0.729,10.707-1.693,15.94-1.858c-7.854,12.13-12.165,19.736-14.427,24.524C67.99,127.593,195.372,73.608,163.333,50.018
		 M46.352,87.894c-4.625,5.112-7.75,7.667-9.371,7.667c-6.48,0,16.861-22.704,30.246-46.221c7.246-1.292,14.12-2.185,18.471-2.945
		l-2.83,2.915C66.313,66.432,54.14,79.293,46.352,87.894 M98.858,40.797l21.621-22.52c2.917-3.003,4.703-4.505,5.359-4.505
		c0.078,0,0.195,0.082,0.357,0.242c0,1.46-1.051,4.402-3.163,8.825c-2.11,4.421-4.337,8.338-6.693,11.746
		c-1.163,1.758-2.284,3.455-3.347,5.091C108.125,39.848,103.416,40.221,98.858,40.797 M105.202,65.438
		c2.609-5.13,7.185-12.848,13.725-23.149c7.664,0.195,14.721,0.994,21.175,2.395c7.511,1.629,13.266,4.363,17.972,7.076
		C188.544,69.332,76.476,121.856,105.202,65.438"/>
</g>
</svg>
