<?xml version="1.0" encoding="utf-8"?>
<!-- Generator: Adobe Illustrator 17.0.0, SVG Export Plug-In . SVG Version: 6.00 Build 0)  -->
<!DOCTYPE svg PUBLIC "-//W3C//DTD SVG 1.1//EN" "http://www.w3.org/Graphics/SVG/1.1/DTD/svg11.dtd">
<svg version="1.1" id="Слой_1" xmlns="http://www.w3.org/2000/svg" xmlns:xlink="http://www.w3.org/1999/xlink" x="0px" y="0px"
	 width="223.394px" height="37.95px" viewBox="0 0 223.394 37.95" enable-background="new 0 0 223.394 37.95" xml:space="preserve">
<g>
	<path fill="#009640" d="M30.575,29.015c2.052,0,3.72-1.668,3.72-3.72c0-2.051-1.668-3.719-3.72-3.719h-13.97
		c-4.919,0-8.922-4.002-8.922-8.922s4.002-8.921,8.922-8.921h5.921L2.523,0L2.479,0.037C2.359,0.015,2.237,0,2.111,0
		C0.945,0,0,0.945,0,2.111l1.336,17.64l0.032-0.014c0.241,3.717,2.01,7.016,4.683,9.279L30.575,29.015L30.575,29.015z"/>
	<path fill="#009640" d="M45.844,18.199l-0.032,0.013c-0.241-3.716-2.01-7.015-4.683-9.278H16.605c-2.052,0-3.72,1.668-3.72,3.719
		c0,2.052,1.668,3.72,3.72,3.72h13.969c4.919,0,8.922,4.002,8.922,8.922c0,4.919-4.002,8.921-8.922,8.921h-5.919l20.001,3.733
		l0.044-0.037c0.12,0.021,0.242,0.037,0.368,0.037c1.166,0,2.111-0.945,2.111-2.111L45.844,18.199z"/>
	<path fill="#3C3C3B" d="M62.544,19.461c0,2.665,8.859,1.441,8.859,7.383c0,3.385-2.88,5.114-6.591,5.114
		c-3.097,0-5.474-1.405-6.374-2.521c-0.288-0.36-0.432-0.685-0.432-1.116c0-0.936,0.792-1.729,1.728-1.729
		c0.361,0,0.721,0.108,1.117,0.432c0.973,0.792,2.161,1.477,3.961,1.477c1.621,0,2.666-0.432,2.666-1.441
		c0-2.917-8.823-1.404-8.823-7.527c0-3.24,2.701-4.825,6.014-4.825c2.557,0,4.826,0.972,5.834,2.233
		c0.216,0.288,0.36,0.54,0.36,1.08c0,0.937-0.792,1.73-1.728,1.73c-0.504,0-0.829-0.217-1.224-0.504
		c-0.793-0.577-1.765-1.153-3.242-1.153C63.337,18.092,62.544,18.56,62.544,19.461"/>
	<path fill="#3C3C3B" d="M77.862,21.513h7.131c0-1.764-1.009-3.493-3.35-3.493C79.555,18.02,78.042,19.209,77.862,21.513
		 M81.643,14.707c6.086,0,7.203,4.681,7.203,7.166c0,1.333,0,2.881-2.197,2.881h-8.896c0,2.593,1.837,3.781,4.214,3.781
		c1.584,0,2.7-0.54,3.565-1.116c0.396-0.252,0.684-0.397,1.152-0.397c0.937,0,1.692,0.756,1.692,1.693
		c0,0.576-0.288,1.044-0.612,1.332c-0.612,0.577-2.521,1.981-5.798,1.981c-5.006,0-8.103-2.701-8.103-8.715
		C73.865,17.804,76.746,14.707,81.643,14.707"/>
	<path fill="#3C3C3B" d="M99.187,14.707c3.313,0,5.221,1.656,5.87,2.485c0.287,0.397,0.396,0.684,0.396,1.116
		c0,0.973-0.757,1.729-1.729,1.729c-0.576,0-1.009-0.252-1.333-0.613c-0.468-0.504-1.404-1.404-3.204-1.404
		c-2.521,0-3.89,1.945-3.89,5.33c0,3.457,1.368,5.366,3.89,5.366c1.656,0,2.737-0.828,3.565-1.44c0.397-0.289,0.72-0.361,1.08-0.361
		c0.972,0,1.729,0.756,1.729,1.729c0,0.504-0.181,0.937-0.612,1.332c-0.829,0.757-2.809,2.053-5.762,2.053
		c-4.898,0-7.815-2.809-7.815-8.679C91.372,17.481,94.289,14.707,99.187,14.707"/>
	<path fill="#3C3C3B" d="M115.639,18.02c-2.593,0-3.962,1.802-3.962,5.367c0,3.529,1.368,5.329,3.962,5.329
		c2.592,0,3.962-1.8,3.962-5.329C119.6,19.821,118.231,18.02,115.639,18.02 M115.639,32.029c-4.862,0-7.887-2.773-7.887-8.643
		c0-5.906,3.025-8.679,7.887-8.679s7.886,2.773,7.886,8.679C123.525,29.257,120.5,32.029,115.639,32.029"/>
	<path fill="#3C3C3B" d="M141.338,20.974v9.003c0,1.08-0.864,1.873-1.945,1.873c-1.152,0-1.945-0.792-1.945-1.873v-8.283
		c0-2.052-0.828-3.457-3.169-3.457c-2.701,0-3.601,1.585-3.601,3.709v8.031c0,1.08-0.829,1.873-1.945,1.873
		c-1.116,0-1.944-0.792-1.944-1.873V16.868c0-1.08,0.864-1.945,1.944-1.945s1.945,0.865,1.945,1.945
		c0.684-1.044,2.196-2.16,4.609-2.16C140.186,14.708,141.338,17.84,141.338,20.974"/>
	<path fill="#3C3C3B" d="M155.791,19.857c0,0-1.404-1.837-3.565-1.837c-2.449,0-3.854,1.801-3.854,5.366
		c0,3.529,1.369,5.33,3.854,5.33c2.089,0,3.565-1.404,3.565-3.89V19.857z M155.791,16.148V7.865c0-1.08,0.865-1.945,1.945-1.945
		s1.945,0.864,1.945,1.945v16.961c0,4.79-3.097,7.203-7.455,7.203c-4.862,0-7.707-2.773-7.707-8.643c0-5.869,2.773-8.679,7.31-8.679
		C153.559,14.707,155.072,15.428,155.791,16.148"/>
	<path fill="#3C3C3B" d="M166.024,24.934c0,3.421,1.98,5.006,4.753,5.006c3.314,0,5.078-2.088,5.078-6.59
		c0-4.43-1.8-6.555-5.078-6.555c-3.385,0-4.753,3.169-4.753,3.169V24.934z M178.16,23.35c0,5.906-2.737,8.679-7.383,8.679
		c-4.105,0-7.058-2.34-7.058-7.095V7.073c0-0.649,0.504-1.152,1.153-1.152c0.648,0,1.152,0.504,1.152,1.152v9.975
		c0.828-1.153,2.592-2.341,4.898-2.341C175.567,14.707,178.16,17.444,178.16,23.35"/>
	<path fill="#3C3C3B" d="M184.266,30.697c0,0.649-0.504,1.152-1.152,1.152c-0.649,0-1.152-0.504-1.152-1.152V16.076
		c0-0.649,0.504-1.153,1.152-1.153s1.152,0.504,1.152,1.153V30.697z M181.745,10.17c0-1.044,0.504-1.441,1.368-1.441
		c0.865,0,1.368,0.397,1.368,1.441c0,0.864-0.504,1.368-1.368,1.368S181.745,11.034,181.745,10.17"/>
	<path fill="#3C3C3B" d="M202.62,21.081v9.615c0,0.649-0.504,1.152-1.152,1.152c-0.649,0-1.153-0.504-1.153-1.152V21.55
		c0-2.845-0.828-4.79-4.321-4.79c-3.566,0-4.79,2.161-4.79,5.041v8.895c0,0.649-0.504,1.152-1.152,1.152s-1.152-0.504-1.152-1.152
		v-14.62c0-0.648,0.504-1.152,1.152-1.152s1.152,0.504,1.152,1.152v1.152c0.685-1.368,2.449-2.521,4.79-2.521
		C201.54,14.707,202.62,18.02,202.62,21.081"/>
	<path fill="#3C3C3B" d="M218.406,19.965c0,0-1.368-3.17-4.754-3.17c-3.277,0-5.078,2.126-5.078,6.555
		c0,4.502,1.765,6.59,5.078,6.59c2.773,0,4.754-1.585,4.754-5.005V19.965z M218.406,17.048V7.073c0-0.649,0.504-1.152,1.152-1.152
		c0.649,0,1.153,0.504,1.153,1.152v17.862c0,4.754-2.954,7.094-7.059,7.094c-4.645,0-7.383-2.773-7.383-8.679
		c0-5.905,2.593-8.643,7.239-8.643C215.813,14.707,217.577,15.896,218.406,17.048"/>
</g>
</svg>
